<?xml version="1.0" encoding="utf-8"?>
<!-- Generator: Adobe Illustrator 24.0.2, SVG Export Plug-In . SVG Version: 6.00 Build 0)  -->
<svg version="1.1" xmlns="http://www.w3.org/2000/svg" xmlns:xlink="http://www.w3.org/1999/xlink" x="0px" y="0px"
	 viewBox="0 0 1366 768" style="enable-background:new 0 0 1366 768;" xml:space="preserve">
<style type="text/css">
	.st0{fill:url(#SVGID_1_);}
	.st1{opacity:0.1;}
	.st2{fill:none;stroke:#2EAFFF;stroke-miterlimit:10;}
	.st3{fill:#2EAFFF;}
	.st4{fill:none;stroke:#2EAFFF;stroke-width:8;stroke-miterlimit:10;}
	.st5{fill:none;stroke:#2EAFFF;stroke-width:12;stroke-miterlimit:10;}
	.st6{fill:none;stroke:#2EAFFF;stroke-width:9;stroke-miterlimit:10;}
	.st7{fill:none;stroke:#2EAFFF;stroke-width:6;stroke-miterlimit:10;}
	.st8{fill:none;stroke:#2EAFFF;stroke-width:10;stroke-miterlimit:10;}
</style>
<g id="Background">
	<linearGradient id="SVGID_1_" gradientUnits="userSpaceOnUse" x1="683" y1="768" x2="683" y2="-9.094947e-13">
		<stop  offset="0" style="stop-color:#1A2C5B"/>
		<stop  offset="0.1203" style="stop-color:#002951"/>
		<stop  offset="0.2968" style="stop-color:#001B37"/>
		<stop  offset="1" style="stop-color:#000B1A"/>
	</linearGradient>
	<rect class="st0" width="1366" height="768"/>
	<g id="Grid">
		<g class="st1">
			<rect class="st2" width="1366" height="768"/>
			<line class="st2" x1="1366" y1="48" x2="0" y2="48"/>
			<line class="st2" x1="1366" y1="96" x2="0" y2="96"/>
			<line class="st2" x1="1366" y1="144" x2="0" y2="144"/>
			<line class="st2" x1="1366" y1="192" x2="0" y2="192"/>
			<line class="st2" x1="1366" y1="240" x2="0" y2="240"/>
			<line class="st2" x1="1366" y1="288" x2="0" y2="288"/>
			<line class="st2" x1="1366" y1="336" x2="0" y2="336"/>
			<line class="st2" x1="1366" y1="384" x2="0" y2="384"/>
			<line class="st2" x1="1366" y1="432" x2="0" y2="432"/>
			<line class="st2" x1="1366" y1="480" x2="0" y2="480"/>
			<line class="st2" x1="1366" y1="528" x2="0" y2="528"/>
			<line class="st2" x1="1366" y1="576" x2="0" y2="576"/>
			<line class="st2" x1="1366" y1="624" x2="0" y2="624"/>
			<line class="st2" x1="1366" y1="672" x2="0" y2="672"/>
			<line class="st2" x1="1366" y1="720" x2="0" y2="720"/>
			<line class="st2" x1="59.4" y1="768" x2="59.4" y2="0"/>
			<line class="st2" x1="118.8" y1="768" x2="118.8" y2="0"/>
			<line class="st2" x1="178.2" y1="768" x2="178.2" y2="0"/>
			<line class="st2" x1="237.6" y1="768" x2="237.6" y2="0"/>
			<line class="st2" x1="297" y1="768" x2="297" y2="0"/>
			<line class="st2" x1="356.3" y1="768" x2="356.3" y2="0"/>
			<line class="st2" x1="415.7" y1="768" x2="415.7" y2="0"/>
			<line class="st2" x1="475.1" y1="768" x2="475.1" y2="0"/>
			<line class="st2" x1="534.5" y1="768" x2="534.5" y2="0"/>
			<line class="st2" x1="593.9" y1="768" x2="593.9" y2="0"/>
			<line class="st2" x1="653.3" y1="768" x2="653.3" y2="0"/>
			<line class="st2" x1="712.7" y1="768" x2="712.7" y2="0"/>
			<line class="st2" x1="772.1" y1="768" x2="772.1" y2="0"/>
			<line class="st2" x1="831.5" y1="768" x2="831.5" y2="0"/>
			<line class="st2" x1="890.9" y1="768" x2="890.9" y2="0"/>
			<line class="st2" x1="950.3" y1="768" x2="950.3" y2="0"/>
			<line class="st2" x1="1009.7" y1="768" x2="1009.7" y2="0"/>
			<line class="st2" x1="1069" y1="768" x2="1069" y2="0"/>
			<line class="st2" x1="1128.4" y1="768" x2="1128.4" y2="0"/>
			<line class="st2" x1="1187.8" y1="768" x2="1187.8" y2="0"/>
			<line class="st2" x1="1247.2" y1="768" x2="1247.2" y2="0"/>
			<line class="st2" x1="1306.6" y1="768" x2="1306.6" y2="0"/>
		</g>
	</g>
</g>
<g id="Circuits">
	<polygon class="st3" points="1366.2,626.6 1366.2,642.5 1310.4,698.3 1310.4,769 1298.3,769 1298.3,694.5 	"/>
	<path class="st3" d="M1369,348c0,16.2-11.6,29.6-27,32.5v249.9l-12.1,12.1l-55.8,55.8V769H1262v-74.5l67.9-67.9V380.4
		c-15.3-2.9-26.9-16.3-26.9-32.4c0-18.2,14.8-33,33-33S1369,329.8,1369,348z"/>
	<g>
		<circle class="st4" cx="1281.5" cy="533.5" r="33.5"/>
		<path class="st3" d="M1291,382.1V498h-12v-89.1l-5,5V501h-6v-81.1l-89,89V558l45.8,45.8l-0.3,0.3h0.5v46.4
			c14.7,2.4,26,15.2,26,30.6c0,17.1-13.9,31-31,31s-31-13.9-31-31c0-15.1,10.8-27.6,25-30.4V611l-39-39l-7-7v-61l122.4-122.5
			L1291,382.1z"/>
	</g>
	<g>
		<polygon class="st3" points="1139,475 1139,772 1197,830 1207.5,819.5 1154,765.9 1154,747.7 1203.6,797.3 1214.2,786.7 
			1154,726.6 1154,475 		"/>
		<circle class="st5" cx="1146.5" cy="448.5" r="28.5"/>
	</g>
	<path class="st3" d="M1102,532v238h-6.8V537.1l-26.6-26.6c-4,2.8-8.9,4.5-14.2,4.5c-13.5,0-24.5-11-24.5-24.5
		c0-13.5,11-24.5,24.5-24.5s24.5,11,24.5,24.5c0,5.2-1.6,10.1-4.4,14.1L1102,532z"/>
	<g>
		<circle class="st5" cx="1018.9" cy="686.7" r="45.1"/>
		<rect x="1015.9" y="731.4" class="st3" width="22.1" height="38.6"/>
		<rect x="1003" y="732" class="st3" width="6" height="38"/>
	</g>
	<polygon class="st3" points="952,633.5 952,767.8 944.4,767.8 944.4,639.4 935,630 935,768.2 927.4,768.2 927.4,622.4 919,614 
		919,770.8 909.4,770.8 909.4,592 910.5,592 928.9,610.4 935,616.6 	"/>
	<path class="st3" d="M904,789.5l-4.2,4.2l-39.9-39.9c-4.3,3.2-9.6,5.1-15.3,5.1c-14.1,0-25.5-11.4-25.5-25.5
		c0-14.1,11.4-25.5,25.5-25.5s25.5,11.4,25.5,25.5c0,6.2-2.2,11.8-5.8,16.2L904,789.5z"/>
	<g>
		<circle class="st4" cx="763" cy="443" r="24"/>
		<path class="st3" d="M970,422c0,17.3-12.5,31.6-29,34.5v25l-0.9,0.9L830.8,591.8l-5.3-5.3l-0.1,0.1l-69.9-69.9v-51.5H768V514
			l61,61l100.5-100.5v-18c-16.7-2.7-29.5-17.1-29.5-34.6c0-19.3,15.7-35,35-35S970,402.7,970,422z"/>
	</g>
	<g>
		<path class="st3" d="M964.5,505.5l0.1-0.1L950,490.8l-124,124l-83-83c2-4.7,3-9.8,3-15.2c0-21.8-17.7-39.5-39.5-39.5
			S667,494.7,667,516.5s17.7,39.5,39.5,39.5c4.9,0,9.6-0.9,14-2.5l83.4,83.4L755.8,685l-3.8,3.8v181.7H781V689l11-11v90h13V665
			l142-142l17.5,17.5L982,523L964.5,505.5z M814.4,626.4l-81-81c2.1-1.9,4-4.1,5.6-6.4l81.4,81.4L814.4,626.4z"/>
		<ellipse class="st5" cx="995.8" cy="554.1" rx="34.1" ry="33.9"/>
	</g>
	<g>
		<circle class="st6" cx="731.6" cy="649.4" r="24.4"/>
		<polygon class="st3" points="718.5,670.5 683,706.1 683,768 670,768 670,702 710,662 		"/>
	</g>
	<polygon class="st3" points="650,448 650,770 613,770 613,537.3 607,543.3 607,767.9 599.6,767.9 599.6,550.7 594.3,556 
		594.3,767.9 587,767.9 587,563.3 563,587.3 563,770 526,770 526,572 527,572 526.5,571.5 650,448 	"/>
	<g>
		<circle class="st7" cx="600" cy="403" r="24"/>
		<polygon class="st3" points="604,425 604,478.6 603.3,479.3 514,568.6 514,770 506.3,770 506.3,566.7 597,476 597,425 		"/>
	</g>
	<path class="st3" d="M562.9,488.3c0,12.3-10,22.3-22.4,22.3c-5,0-9.6-1.6-13.3-4.2L485,548.6v102l-3.4,3.4l-54.1,54.1
		c2.8,3.7,4.4,8.2,4.4,13.2c0,12.3-10,22.3-22.4,22.3c-12.4,0.1-22.5-9.9-22.6-22.2c0-12.3,10-22.3,22.4-22.3c5,0,9.6,1.6,13.3,4.3
		l55-54.9v-102l1.4-1.4l43.3-43.4c-2.8-3.7-4.4-8.2-4.4-13.2c0-12.3,10-22.3,22.4-22.3C552.8,466.1,562.9,476,562.9,488.3z"/>
	<polygon class="st3" points="404.3,786 404.3,812 384.4,812 384.4,781.4 370.8,767.7 370.8,804.8 361.2,804.8 361.2,743.5 
		361.5,743.3 	"/>
	<g>
		<circle class="st5" cx="385" cy="642" r="24"/>
		
			<rect x="299.1" y="634.6" transform="matrix(-0.7071 -0.7071 0.7071 -0.7071 19.8987 1444.155)" class="st3" width="19.8" height="166.8"/>
	</g>
	<g>
		<circle class="st8" cx="407" cy="480" r="34"/>
		<polygon class="st3" points="288,534 288,535 287,534 287,533 		"/>
		<polygon class="st3" points="288,534 288,535 287,534 287,533 		"/>
		<path class="st3" d="M393.8,514.8L252,656.6l-5.4,5.4h-1.3v-93.3l35.9-35.9v-71c-12.5-1.6-22.2-12.3-22.2-25.3
			c0-14.1,11.4-25.5,25.5-25.5s25.5,11.4,25.5,25.5c0,12.9-9.6,23.5-22,25.3V534l-1-1v1l1,1v-1l0.1,0.1c0,0.5,0,1,0.1,1.5L252,571.8
			V625l124-124l3.9,3.9L252,632.8V645l136-136L393.8,514.8z"/>
	</g>
	<g>
		<circle class="st7" cx="161.5" cy="579.5" r="15.5"/>
		<path class="st3" d="M280.3,665c-12.4,0-22.5,10-22.4,22.3c0,5,1.7,9.6,4.5,13.3L221,742V518.2c13.2-3.1,23-15,23-29.2
			c0-16.6-13.4-30-30-30s-30,13.4-30,30c0,13.8,9.3,25.4,22,28.9v155.3l-91.4-91.4V323.6l79.7,79.7v24.9l-29.4,29.4l-6.7,6.7v102.8
			h6.7v-99.7l35-34.9l1.1-1.1V399l-6.7-6.7l-79.7-79.7l-17.3-17.3L92,290l0,2.6l0,5.4v291.5h0.1l-0.1,0.1c0,0.2,0,0.3,0,0.5L206,704
			v64h15v-16.4l46.3-46.3c3.7,2.6,8.3,4.2,13.1,4.1c12.4-0.1,22.5-10.1,22.4-22.3C302.8,674.8,292.7,664.9,280.3,665z M206,694.2
			l-107-107V308l8.6,8.6v267.5h0.1l-0.1,0.1c0,0.1,0,0.3,0,0.5L206,683V694.2z"/>
	</g>
	<polygon class="st3" points="194,739.5 194,779 163.8,779 163.8,732.4 143,711.6 143,768.1 128.5,768.1 128.5,674.8 128.9,674.4 	
		"/>
	<path class="st3" d="M110.3,642.3c0,11.3-8.3,20.7-19,22.3v120.7h-6.5V664.5c-10.8-1.6-19-11-19-22.3c0-12.4,10-22.5,22.3-22.5
		S110.3,629.8,110.3,642.3z"/>
	<g>
		<polygon class="st3" points="56,416 56,713 -2,771 -12.5,760.5 41,706.9 41,688.7 -8.6,738.3 -19.2,727.7 41,667.6 41,416 		"/>
		<circle class="st5" cx="48.5" cy="389.5" r="28.5"/>
	</g>
</g>
</svg>
